<svg width="88.847" height="105.972" viewBox="0 0 88.847 105.972" xmlns="http://www.w3.org/2000/svg" xmlns:xlink="http://www.w3.org/1999/xlink" id="Layer_1" overflow="hidden"><g id="Artboard_1"><g id="Layer_1-2"><path d="M136.065 60.262C135.863 57.508 134.694 54.9141 132.765 52.938 130.842 50.9597 128.197 49.8498 125.438 49.864L119.164 49.864 119.164 44.419C119.205 38.7727 116.943 33.3536 112.9 29.412 104.634 21.1045 91.198 21.0711 82.8905 29.3374 78.8784 33.3296 76.6275 38.7591 76.638 44.419L76.638 49.857 70.376 49.857C67.6176 49.8446 64.9728 50.9542 63.049 52.931 61.1206 54.9074 59.9519 57.5011 59.749 60.255L53.48 118.388 53.48 119.217C53.4748 121.81 54.5447 124.29 56.435 126.065 58.2482 127.777 60.5702 128.852 63.049 129.126L132.638 129.126C135.16 128.872 137.527 127.791 139.371 126.052 141.285 124.243 142.357 121.717 142.326 119.083L142.326 118.254ZM83.135 44.419C83.135 36.1991 89.7986 29.5355 98.0185 29.5355 106.238 29.5355 112.902 36.1991 112.902 44.419L112.902 49.857 83.135 49.857ZM135.707 119.219C135.71 119.563 135.661 119.905 135.56 120.233L135.56 120.233C135.39 120.761 135.072 121.229 134.644 121.582 133.898 122.29 132.947 122.745 131.928 122.882L63.635 122.882C62.6087 122.768 61.6512 122.31 60.919 121.582 60.3374 121.102 59.9675 120.412 59.889 119.662L59.889 119.662C59.8666 119.515 59.8555 119.367 59.856 119.218L59.856 118.858 63.68 83.475 66.112 60.863C66.228 59.6146 66.7717 58.4447 67.651 57.551 68.3658 56.8118 69.3468 56.3897 70.375 56.379L76.64 56.379 76.64 70.792C76.6841 72.5532 78.1476 73.9452 79.9089 73.9011 81.6081 73.8586 82.9754 72.4912 83.018 70.792L83.018 56.366 112.562 56.366 112.562 70.779C112.606 72.5402 114.07 73.9322 115.831 73.8881 117.53 73.8456 118.897 72.4782 118.94 70.779L118.94 56.366 125.209 56.366C126.233 56.3812 127.209 56.8049 127.92 57.543 128.8 58.435 129.342 59.6051 129.454 60.853L131.881 83.475 135.712 119Z" id="Path_5" fill="#E64545" transform="translate(-53.48 -23.154)"/><path d="M154.421 320.564 154.421 320.564C154.264 321.167 153.948 321.716 153.505 322.154 152.804 322.962 151.844 323.501 150.789 323.679L82.5 323.679C81.4362 323.527 80.4676 322.983 79.784 322.154 79.1827 321.548 78.8175 320.747 78.754 319.895L78.754 319.895 90.906 284.29 139.877 284.29Z" id="Path_6" fill="#1565C0" transform="translate(-72.341 -223.969)"/><path d="M306.637 296.4 306.637 296.636C306.64 296.98 306.591 297.322 306.49 297.65L306.49 297.65C306.321 298.179 306.003 298.649 305.574 299.002 304.829 299.711 303.878 300.166 302.858 300.302L282.49 300.302 283.154 266.794 283.263 260.862 302.791 260.862Z" id="Path_7" fill="#E64545" transform="translate(-224.41 -200.574)"/><path d="M101.838 300.4 82.409 300.4C81.3816 300.287 80.423 299.829 79.69 299.1 79.1084 298.62 78.7385 297.93 78.66 297.18L78.66 297.18C78.6386 297.033 78.6285 296.885 78.63 296.736L78.63 296.376 82.452 261 100.106 261 100.36 266.93Z" id="Path_8" fill="#EFE47F" transform="translate(-72.251 -200.679)"/></g></g></svg>